<svg xmlns="http://www.w3.org/2000/svg" viewBox="0 0 64 64" role="img" aria-label="Clothesline">
  <!-- The in-app .brand-mark rendered as an icon: same aqua-500 → aqua-700 gradient,
       same rounded square, carrying the `bag` glyph from Icon.tsx. This is the PWA's
       only icon, so it is also what lands on the home screen. -->
  <defs>
    <linearGradient id="aqua" x1="0" y1="0" x2="1" y2="1">
      <stop offset="0" stop-color="#16a9b0" />
      <stop offset="1" stop-color="#0f6b70" />
    </linearGradient>
  </defs>
  <rect width="64" height="64" rx="14" fill="url(#aqua)" />
  <g transform="translate(16 16) scale(2)" fill="#fff">
    <path
      d="M8 1a2.5 2.5 0 0 1 2.5 2.5V4h-5v-.5A2.5 2.5 0 0 1 8 1m3.5 3v-.5a3.5 3.5 0 1 0-7 0V4H1v10a2 2 0 0 0 2 2h10a2 2 0 0 0 2-2V4zM2 5h12v9a1 1 0 0 1-1 1H3a1 1 0 0 1-1-1z"
    />
  </g>
</svg>
